<svg xmlns="http://www.w3.org/2000/svg" width="32" height="32" viewBox="0 0 32 32">
  <path d="M1.375,49.875A1.374,1.374,0,0,0,2.75,51.25h16.5a1.374,1.374,0,0,0,1.375-1.375V37.5H1.375ZM8.25,40.766a.517.517,0,0,1,.516-.516h4.469a.517.517,0,0,1,.516.516v.344a.517.517,0,0,1-.516.516H8.766a.517.517,0,0,1-.516-.516ZM20.625,32H1.375A1.374,1.374,0,0,0,0,33.375v2.063a.69.69,0,0,0,.688.688H21.313A.69.69,0,0,0,22,35.438V33.375A1.374,1.374,0,0,0,20.625,32Z" transform="translate(5 -25.625)" fill="currentColor"/>
  <rect width="32" height="32" fill="none"/>
</svg>
